<svg width="440" height="440" viewBox="0 0 440 440" fill="none" xmlns="http://www.w3.org/2000/svg">
<g clip-path="url(#clip0)">
<g opacity="0.9">
<path opacity="0.9" fill-rule="evenodd" clip-rule="evenodd" d="M63.1508 157.921C78.9595 198.101 110.112 244.346 152.877 287.11C195.641 329.875 241.886 361.028 282.066 376.836C302.157 384.741 320.709 388.8 336.539 388.573C352.365 388.345 365.437 383.835 374.635 374.637C383.833 365.439 388.343 352.368 388.57 336.541C388.798 320.712 384.738 302.16 376.834 282.069C361.025 241.888 329.872 195.643 287.108 152.879C244.344 110.115 198.099 78.9619 157.918 63.1533C137.827 55.2486 119.275 51.1894 103.446 51.4169C87.6193 51.6443 74.5476 56.1542 65.3497 65.3522C56.1517 74.5501 51.6418 87.6218 51.4144 103.448C51.1869 119.278 55.2462 137.83 63.1508 157.921ZM50.4145 103.434C50.6444 87.4299 55.2094 74.0782 64.6426 64.645C74.0757 55.2119 87.4274 50.6469 103.431 50.417C119.432 50.1871 138.117 54.2881 158.284 62.2227C198.621 78.0926 244.977 109.334 287.815 152.172C330.653 195.01 361.894 241.367 377.764 281.703C385.699 301.87 389.8 320.555 389.57 336.556C389.34 352.56 384.775 365.911 375.342 375.345C365.909 384.778 352.557 389.343 336.553 389.573C320.553 389.802 301.867 385.701 281.7 377.767C241.364 361.897 195.007 330.655 152.17 287.818C109.332 244.98 78.0901 198.623 62.2202 158.287C54.2856 138.12 50.1846 119.434 50.4145 103.434Z" fill="url(#paint0_linear)"/>
<path opacity="0.9" fill-rule="evenodd" clip-rule="evenodd" d="M43.184 177.91C58.9927 218.09 90.1456 264.335 132.91 307.099C175.674 349.863 221.919 381.016 262.099 396.825C282.191 404.73 300.742 408.789 316.572 408.562C332.398 408.334 345.47 403.824 354.668 394.626C363.866 385.428 368.376 372.357 368.603 356.53C368.831 340.701 364.772 322.149 356.867 302.058C341.058 261.877 309.905 215.632 267.141 172.868C224.377 130.104 178.132 98.9508 137.951 83.1421C117.86 75.2374 99.3085 71.1782 83.4789 71.4056C67.6525 71.633 54.5808 76.143 45.3828 85.3409C36.1849 94.5389 31.675 107.611 31.4476 123.437C31.2201 139.267 35.2794 157.818 43.184 177.91ZM30.4477 123.423C30.6776 107.419 35.2426 94.067 44.6757 84.6338C54.1089 75.2007 67.4606 70.6357 83.4645 70.4057C99.4651 70.1758 118.15 74.2769 138.318 82.2115C178.654 98.0814 225.01 129.323 267.848 172.161C310.686 214.999 341.928 261.355 357.797 301.691C365.732 321.859 369.833 340.544 369.603 356.545C369.373 372.548 364.808 385.9 355.375 395.333C345.942 404.767 332.59 409.331 316.586 409.561C300.586 409.791 281.901 405.69 261.733 397.756C221.397 381.886 175.041 350.644 132.203 307.806C89.365 264.969 58.1233 218.612 42.2534 178.276C34.3188 158.108 30.2178 139.423 30.4477 123.423Z" fill="url(#paint1_linear)"/>
<path opacity="0.9" fill-rule="evenodd" clip-rule="evenodd" d="M73.145 147.933C88.9536 188.114 120.107 234.358 162.871 277.123C205.635 319.887 251.88 351.04 292.06 366.849C312.152 374.753 330.703 378.812 346.533 378.585C362.359 378.358 375.431 373.848 384.629 364.65C393.827 355.452 398.337 342.38 398.564 326.554C398.792 310.724 394.733 292.172 386.828 272.081C371.019 231.901 339.866 185.656 297.102 142.891C254.338 100.127 208.093 68.9742 167.912 53.1655C147.821 45.2609 129.269 41.2016 113.44 41.4291C97.6135 41.6565 84.5417 46.1664 75.3438 55.3644C66.1459 64.5623 61.6359 77.634 61.4085 93.4604C61.1811 109.29 65.2403 127.842 73.145 147.933ZM60.4086 93.446C60.6386 77.4421 65.2035 64.0904 74.6367 54.6573C84.0698 45.2241 97.4216 40.6591 113.425 40.4292C129.426 40.1993 148.111 44.3003 168.279 52.235C208.615 68.1048 254.971 99.3465 297.809 142.184C340.647 185.022 371.889 231.379 387.759 271.715C395.693 291.882 399.794 310.567 399.564 326.568C399.334 342.572 394.769 355.924 385.336 365.357C375.903 374.79 362.551 379.355 346.547 379.585C330.547 379.815 311.862 375.714 291.694 367.779C251.358 351.909 205.002 320.668 162.164 277.83C119.326 234.992 88.0843 188.635 72.2144 148.299C64.2798 128.132 60.1787 109.447 60.4086 93.446Z" fill="url(#paint2_linear)"/>
<path opacity="0.9" fill-rule="evenodd" clip-rule="evenodd" d="M93.1186 127.961C108.927 168.141 140.08 214.386 182.844 257.15C225.609 299.915 271.854 331.068 312.034 346.876C332.125 354.781 350.677 358.84 366.507 358.613C382.333 358.385 395.405 353.875 404.603 344.677C413.801 335.48 418.311 322.408 418.538 306.581C418.765 290.752 414.706 272.2 406.802 252.109C390.993 211.928 359.84 165.683 317.076 122.919C274.311 80.1549 228.067 49.002 187.886 33.1933C167.795 25.2887 149.243 21.2295 133.413 21.4569C117.587 21.6843 104.515 26.1943 95.3174 35.3922C86.1195 44.5901 81.6095 57.6619 81.3822 73.4882C81.1547 89.3179 85.214 107.87 93.1186 127.961ZM80.3823 73.4739C80.6122 57.47 85.1772 44.1182 94.6103 34.6851C104.043 25.2519 117.395 20.687 133.399 20.457C149.4 20.2271 168.085 24.3281 188.252 32.2628C228.588 48.1326 274.945 79.3743 317.783 122.212C360.621 165.05 391.862 211.407 407.732 251.743C415.667 271.91 419.768 290.595 419.538 306.596C419.308 322.6 414.743 335.951 405.31 345.385C395.877 354.818 382.525 359.383 366.521 359.613C350.52 359.843 331.835 355.742 311.668 347.807C271.332 331.937 224.975 300.695 182.137 257.858C139.3 215.02 108.058 168.663 92.188 128.327C84.2534 108.16 80.1524 89.4745 80.3823 73.4739Z" fill="url(#paint3_linear)"/>
<path opacity="0.9" fill-rule="evenodd" clip-rule="evenodd" d="M103.106 117.97C118.915 158.151 150.068 204.395 192.832 247.16C235.596 289.924 281.841 321.077 322.021 336.886C342.112 344.79 360.664 348.849 376.494 348.622C392.32 348.395 405.392 343.885 414.59 334.687C423.788 325.489 428.298 312.417 428.525 296.591C428.753 280.761 424.694 262.209 416.789 242.118C400.98 201.938 369.827 155.693 327.063 112.928C284.299 70.1642 238.054 39.0113 197.873 23.2026C177.782 15.298 159.23 11.2387 143.401 11.4662C127.574 11.6936 114.503 16.2035 105.305 25.4015C96.1068 34.5994 91.5969 47.6711 91.3695 63.4975C91.142 79.3272 95.2013 97.879 103.106 117.97ZM90.3696 63.4831C90.5995 47.4792 95.1645 34.1275 104.598 24.6944C114.031 15.2612 127.383 10.6962 143.386 10.4663C159.387 10.2364 178.072 14.3374 198.24 22.272C238.576 38.1419 284.932 69.3836 327.77 112.221C370.608 155.059 401.85 201.416 417.72 241.752C425.654 261.919 429.755 280.604 429.525 296.605C429.295 312.609 424.73 325.961 415.297 335.394C405.864 344.827 392.512 349.392 376.508 349.622C360.508 349.852 341.823 345.751 321.655 337.816C281.319 321.946 234.962 290.705 192.125 247.867C149.287 205.029 118.045 158.672 102.175 118.336C94.2407 98.169 90.1397 79.4838 90.3696 63.4831Z" fill="url(#paint4_linear)"/>
<path opacity="0.9" fill-rule="evenodd" clip-rule="evenodd" d="M83.1318 137.942C98.9404 178.123 130.093 224.368 172.858 267.132C215.622 309.896 261.867 341.049 302.047 356.858C322.138 364.762 340.69 368.822 356.52 368.594C372.346 368.367 385.418 363.857 394.616 354.659C403.814 345.461 408.324 332.389 408.551 316.563C408.779 300.733 404.719 282.181 396.815 262.09C381.006 221.91 349.853 175.665 307.089 132.901C264.325 90.1364 218.08 58.9835 177.899 43.1748C157.808 35.2701 139.256 31.2109 123.427 31.4383C107.6 31.6657 94.5286 36.1757 85.3306 45.3736C76.1327 54.5716 71.6227 67.6433 71.3953 83.4697C71.1679 99.2993 75.2271 117.851 83.1318 137.942ZM70.3954 83.4553C70.6254 67.4514 75.1904 54.0997 84.6235 44.6665C94.0567 35.2334 107.408 30.6684 123.412 30.4385C139.413 30.2086 158.098 34.3096 178.265 42.2442C218.601 58.1141 264.958 89.3558 307.796 132.194C350.634 175.031 381.875 221.388 397.745 261.724C405.68 281.891 409.781 300.577 409.551 316.577C409.321 332.581 404.756 345.933 395.323 355.366C385.89 364.799 372.538 369.364 356.534 369.594C340.534 369.824 321.848 365.723 301.681 357.788C261.345 341.919 214.988 310.677 172.151 267.839C129.313 225.001 98.0711 178.645 82.2012 138.308C74.2666 118.141 70.1655 99.4559 70.3954 83.4553Z" fill="url(#paint5_linear)"/>
<path opacity="0.9" fill-rule="evenodd" clip-rule="evenodd" d="M53.1708 167.919C68.9795 208.099 100.132 254.344 142.897 297.108C185.661 339.873 231.906 371.026 272.086 386.834C292.177 394.739 310.729 398.798 326.559 398.571C342.385 398.343 355.457 393.833 364.655 384.635C373.853 375.438 378.363 362.366 378.59 346.539C378.818 330.71 374.758 312.158 366.854 292.067C351.045 251.886 319.892 205.641 277.128 162.877C234.364 120.113 188.119 88.96 147.938 73.1514C127.847 65.2467 109.295 61.1875 93.4657 61.4149C77.6393 61.6423 64.5676 66.1523 55.3697 75.3502C46.1717 84.5481 41.6618 97.6199 41.4344 113.446C41.207 129.276 45.2662 147.828 53.1708 167.919ZM40.4345 113.432C40.6644 97.428 45.2294 84.0762 54.6626 74.6431C64.0957 65.2099 77.4475 60.645 93.4513 60.415C109.452 60.1851 128.137 64.2861 148.304 72.2208C188.64 88.0907 234.997 119.332 277.835 162.17C320.673 205.008 351.914 251.365 367.784 291.701C375.719 311.868 379.82 330.553 379.59 346.554C379.36 362.558 374.795 375.909 365.362 385.343C355.929 394.776 342.577 399.341 326.573 399.571C310.573 399.801 291.887 395.7 271.72 387.765C231.384 371.895 185.027 340.653 142.19 297.816C99.3518 254.978 68.1101 208.621 52.2403 168.285C44.3056 148.118 40.2046 129.432 40.4345 113.432Z" fill="url(#paint6_linear)"/>
<path opacity="0.9" fill-rule="evenodd" clip-rule="evenodd" d="M13.2231 207.863C29.0318 248.043 60.1847 294.288 102.949 337.052C145.713 379.817 191.958 410.969 232.139 426.778C252.23 434.683 270.782 438.742 286.611 438.515C302.438 438.287 315.509 433.777 324.707 424.579C333.905 415.381 338.415 402.31 338.643 386.483C338.87 370.654 334.811 352.102 326.906 332.011C311.097 291.83 279.944 245.585 237.18 202.821C194.416 160.057 148.171 128.904 107.991 113.095C87.8995 105.191 69.3476 101.131 53.518 101.359C37.6916 101.586 24.6199 106.096 15.4219 115.294C6.22399 124.492 1.71404 137.564 1.48665 153.39C1.25921 169.22 5.31844 187.772 13.2231 207.863ZM0.486752 153.376C0.716695 137.372 5.28167 124.02 14.7148 114.587C24.148 105.154 37.4997 100.589 53.5036 100.359C69.5042 100.129 88.1894 104.23 108.357 112.165C148.693 128.035 195.05 159.276 237.887 202.114C280.725 244.952 311.967 291.308 327.837 331.645C335.771 351.812 339.872 370.497 339.642 386.498C339.412 402.502 334.848 415.853 325.414 425.286C315.981 434.72 302.629 439.285 286.626 439.514C270.625 439.744 251.94 435.643 231.772 427.709C191.436 411.839 145.08 380.597 102.242 337.759C59.4041 294.922 28.1624 248.565 12.2925 208.229C4.35789 188.062 0.256855 169.376 0.486752 153.376Z" fill="url(#paint7_linear)"/>
<path opacity="0.9" fill-rule="evenodd" clip-rule="evenodd" d="M33.1972 187.891C49.0058 228.071 80.1588 274.316 122.923 317.08C165.687 359.844 211.932 390.997 252.113 406.806C272.204 414.711 290.756 418.77 306.585 418.542C322.412 418.315 335.483 413.805 344.681 404.607C353.879 395.409 358.389 382.337 358.617 366.511C358.844 350.681 354.785 332.13 346.88 312.039C331.071 271.858 299.918 225.613 257.154 182.849C214.39 140.085 168.145 108.932 127.965 93.123C107.874 85.2184 89.3217 81.1592 73.4921 81.3866C57.6657 81.614 44.594 86.1239 35.396 95.3219C26.1981 104.52 21.6881 117.592 21.4607 133.418C21.2333 149.248 25.2925 167.799 33.1972 187.891ZM20.4609 133.404C20.6908 117.4 25.2558 104.048 34.6889 94.6148C44.1221 85.1816 57.4738 80.6166 73.4777 80.3867C89.4783 80.1568 108.164 84.2578 128.331 92.1925C168.667 108.062 215.024 139.304 257.861 182.142C300.699 224.98 331.941 271.336 347.811 311.672C355.745 331.84 359.846 350.525 359.616 366.525C359.386 382.529 354.822 395.881 345.388 405.314C335.955 414.747 322.603 419.312 306.6 419.542C290.599 419.772 271.914 415.671 251.747 407.737C211.41 391.867 165.054 360.625 122.216 317.787C79.3781 274.949 48.1365 228.593 32.2666 188.257C24.332 168.089 20.231 149.404 20.4609 133.404Z" fill="url(#paint8_linear)"/>
<path opacity="0.9" fill-rule="evenodd" clip-rule="evenodd" d="M23.2099 197.881C39.0186 238.062 70.1715 284.307 112.936 327.071C155.7 369.835 201.945 400.988 242.125 416.797C262.216 424.701 280.768 428.761 296.598 428.533C312.424 428.306 325.496 423.796 334.694 414.598C343.892 405.4 348.402 392.328 348.629 376.502C348.857 360.672 344.798 342.12 336.893 322.029C321.084 281.849 289.931 235.604 247.167 192.84C204.403 150.075 158.158 118.922 117.977 103.114C97.8863 95.2091 79.3344 91.1499 63.5048 91.3773C47.6784 91.6047 34.6067 96.1147 25.4087 105.313C16.2108 114.511 11.7008 127.582 11.4735 143.409C11.246 159.238 15.3052 177.79 23.2099 197.881ZM10.4736 143.394C10.7035 127.39 15.2685 114.039 24.7016 104.606C34.1348 95.1724 47.4865 90.6074 63.4904 90.3774C79.491 90.1476 98.1762 94.2486 118.343 102.183C158.68 118.053 205.036 149.295 247.874 192.133C290.712 234.97 321.954 281.327 337.823 321.663C345.758 341.83 349.859 360.516 349.629 376.516C349.399 392.52 344.834 405.872 335.401 415.305C325.968 424.738 312.616 429.303 296.612 429.533C280.612 429.763 261.927 425.662 241.759 417.727C201.423 401.857 155.066 370.616 112.229 327.778C69.3909 284.94 38.1492 238.583 22.2793 198.247C14.3447 178.08 10.2437 159.395 10.4736 143.394Z" fill="url(#paint9_linear)"/>
<path opacity="0.9" fill-rule="evenodd" clip-rule="evenodd" d="M113.093 107.989C128.901 148.17 160.054 194.415 202.819 237.179C245.583 279.943 291.828 311.096 332.008 326.905C352.099 334.809 370.651 338.869 386.481 338.641C402.307 338.414 415.379 333.904 424.577 324.706C433.775 315.508 438.285 302.436 438.512 286.61C438.74 270.78 434.68 252.228 426.776 232.137C410.967 191.957 379.814 145.712 337.05 102.948C294.286 60.1833 248.041 29.0303 207.86 13.2217C187.769 5.31701 169.217 1.25778 153.388 1.48522C137.561 1.71261 124.489 6.22256 115.292 15.4205C106.094 24.6184 101.584 37.6902 101.356 53.5166C101.129 69.3462 105.188 87.8981 113.093 107.989ZM100.356 53.5022C100.586 37.4983 105.151 24.1466 114.584 14.7134C124.018 5.28024 137.369 0.715263 153.373 0.485319C169.374 0.255432 188.059 4.35647 208.226 12.2911C248.562 28.161 294.919 59.4027 337.757 102.24C380.595 145.078 411.836 191.435 427.706 231.771C435.641 251.938 439.742 270.624 439.512 286.624C439.282 302.628 434.717 315.98 425.284 325.413C415.851 334.846 402.499 339.411 386.495 339.641C370.495 339.871 351.809 335.77 331.642 327.835C291.306 311.965 244.949 280.724 202.111 237.886C159.274 195.048 128.032 148.691 112.162 108.355C104.228 88.188 100.126 69.5028 100.356 53.5022Z" fill="url(#paint10_linear)"/>
</g>
</g>
<defs>
<linearGradient id="paint0_linear" x1="64.6426" y1="64.645" x2="375.342" y2="375.345" gradientUnits="userSpaceOnUse">
<stop stop-color="#FF9191"/>
<stop offset="1" stop-color="#4D49FF"/>
</linearGradient>
<linearGradient id="paint1_linear" x1="44.6757" y1="84.6338" x2="355.375" y2="395.333" gradientUnits="userSpaceOnUse">
<stop stop-color="#FF9191"/>
<stop offset="1" stop-color="#4D49FF"/>
</linearGradient>
<linearGradient id="paint2_linear" x1="74.6367" y1="54.6573" x2="385.336" y2="365.357" gradientUnits="userSpaceOnUse">
<stop stop-color="#FF9191"/>
<stop offset="1" stop-color="#4D49FF"/>
</linearGradient>
<linearGradient id="paint3_linear" x1="94.6103" y1="34.6851" x2="405.31" y2="345.385" gradientUnits="userSpaceOnUse">
<stop stop-color="#FF9191"/>
<stop offset="1" stop-color="#4D49FF"/>
</linearGradient>
<linearGradient id="paint4_linear" x1="104.598" y1="24.6944" x2="415.297" y2="335.394" gradientUnits="userSpaceOnUse">
<stop stop-color="#FF9191"/>
<stop offset="1" stop-color="#4D49FF"/>
</linearGradient>
<linearGradient id="paint5_linear" x1="84.6235" y1="44.6665" x2="395.323" y2="355.366" gradientUnits="userSpaceOnUse">
<stop stop-color="#FF9191"/>
<stop offset="1" stop-color="#4D49FF"/>
</linearGradient>
<linearGradient id="paint6_linear" x1="54.6626" y1="74.6431" x2="365.362" y2="385.343" gradientUnits="userSpaceOnUse">
<stop stop-color="#FF9191"/>
<stop offset="1" stop-color="#4D49FF"/>
</linearGradient>
<linearGradient id="paint7_linear" x1="14.7148" y1="114.587" x2="325.414" y2="425.286" gradientUnits="userSpaceOnUse">
<stop stop-color="#FF9191"/>
<stop offset="1" stop-color="#4D49FF"/>
</linearGradient>
<linearGradient id="paint8_linear" x1="34.6889" y1="94.6148" x2="345.388" y2="405.314" gradientUnits="userSpaceOnUse">
<stop stop-color="#FF9191"/>
<stop offset="1" stop-color="#4D49FF"/>
</linearGradient>
<linearGradient id="paint9_linear" x1="24.7016" y1="104.606" x2="335.401" y2="415.305" gradientUnits="userSpaceOnUse">
<stop stop-color="#FF9191"/>
<stop offset="1" stop-color="#4D49FF"/>
</linearGradient>
<linearGradient id="paint10_linear" x1="114.584" y1="14.7134" x2="425.284" y2="325.413" gradientUnits="userSpaceOnUse">
<stop stop-color="#FF9191"/>
<stop offset="1" stop-color="#4D49FF"/>
</linearGradient>
<clipPath id="clip0">
<rect width="440" height="440" fill="white"/>
</clipPath>
</defs>
</svg>
