<svg width="332" height="332" viewBox="0 0 332 332" fill="none" xmlns="http://www.w3.org/2000/svg">
<path d="M96.984 259.115C90.6401 259.115 85.5936 257.343 82.1089 253.787C73.5483 245.05 75.3914 226.208 87.1722 202.088C110.159 155.019 164.1 100.406 207.411 80.3328C227.19 71.1718 242.258 70.4161 249.9 78.1958C258.456 86.9327 256.617 105.775 244.832 129.895C221.846 176.964 167.904 231.577 124.593 251.65C113.858 256.621 104.503 259.115 96.984 259.115ZM207.613 80.7904L207.819 81.2103C164.675 101.207 110.948 155.615 88.0455 202.516C76.4578 226.241 74.5433 244.681 82.7974 253.107C90.1111 260.568 104.806 259.741 124.181 250.768C167.32 230.792 221.052 176.38 243.955 129.484C255.542 105.759 257.453 87.319 249.198 78.8927C241.889 71.4279 227.19 72.2592 207.819 81.2313L207.613 80.7904Z" fill="url(#paint0_linear)"/>
<path d="M92.424 260.387C85.0054 260.387 79.2493 258.255 75.5211 254.002C66.7968 244.047 70.0002 223.508 84.3126 197.646C111.313 148.86 169.805 94.8387 214.704 77.2221C234.436 69.4844 249.261 69.7615 256.478 77.9988C265.202 87.9533 261.982 108.492 247.682 134.35C220.682 183.136 162.19 237.157 117.296 254.774C107.761 258.519 99.3641 260.387 92.424 260.387ZM239.579 72.5744C232.774 72.5744 224.499 74.4259 215.056 78.129C170.343 95.6742 112.073 149.502 85.1649 198.116C71.0624 223.596 67.8128 243.732 76.2516 253.359C83.1791 261.265 97.6301 261.445 116.939 253.871C161.656 236.326 219.926 182.498 246.83 133.88C260.933 108.4 264.182 88.2682 255.748 78.6412C252.204 74.5981 246.696 72.5744 239.579 72.5744V72.5744Z" fill="url(#paint1_linear)"/>
<path d="M88.2515 261.353C79.5187 261.353 72.8936 258.779 68.9093 253.678C60.0926 242.372 64.799 220.09 81.8573 192.565C113.005 142.302 175.982 89.3468 222.245 74.5263C241.784 68.2665 256.29 69.6142 263.087 78.3049C271.904 89.6155 267.202 111.892 250.139 139.417C218.991 189.698 156.014 242.67 109.752 257.469C101.661 260.064 94.4274 261.353 88.2515 261.353ZM243.762 71.6126C237.691 71.6126 230.558 72.8722 222.543 75.4542C176.469 90.2159 113.728 142.982 82.6844 193.082C65.8528 220.242 61.1128 242.111 69.6692 253.082C76.1978 261.441 90.3255 262.671 109.449 256.545C155.523 241.784 218.26 189.018 249.304 138.918C266.135 111.754 270.879 89.8842 262.319 78.9179C258.528 74.0603 252.171 71.6126 243.762 71.6126Z" fill="url(#paint2_linear)"/>
<path d="M84.3426 262.092C74.0816 262.092 66.5916 258.96 62.3134 252.771C53.4547 239.953 59.8447 215.922 79.8503 186.856C115.26 135.379 182.615 83.9941 229.995 72.3392C249.513 67.532 263.238 69.9209 269.683 79.2456C278.546 92.0635 272.151 116.095 252.146 145.161C216.736 196.638 149.385 248.01 102.022 259.674C95.4433 261.29 89.5403 262.092 84.3426 262.092ZM247.662 70.8739C242.552 70.8739 236.721 71.6674 230.226 73.2671C183.052 84.8883 115.944 136.08 80.6522 187.389C60.8776 216.123 54.4959 239.731 63.1153 252.217C69.3122 261.181 82.68 263.431 101.77 258.729C148.952 247.112 216.052 195.916 251.344 144.611C271.11 115.877 277.517 92.2482 268.885 79.7704C264.796 73.8674 257.583 70.8739 247.662 70.8739Z" fill="url(#paint3_linear)"/>
<path d="M81.286 262.495C69.0013 262.495 60.2938 258.679 55.7637 251.21C46.9889 236.712 55.2179 210.905 78.3513 180.445C118.11 128.061 189.69 78.8175 237.892 70.6725L237.972 71.1511L237.892 70.6725C256.999 67.4439 270.254 70.9412 276.215 80.7866C284.994 95.2838 276.761 121.092 253.632 151.555C213.889 203.939 142.327 253.166 94.0912 261.328C89.8627 262.072 85.5794 262.463 81.286 262.495V262.495ZM250.722 70.4752C246.474 70.5069 242.236 70.8931 238.052 71.6298C190.059 79.7411 118.757 128.817 79.1238 181.033C56.5866 210.732 48.1645 236.775 56.5992 250.727C62.3342 260.207 75.2444 263.545 93.9275 260.383C141.941 252.259 213.243 203.179 252.872 150.963C275.418 121.268 283.835 95.2208 275.418 81.2904C271.064 74.132 262.638 70.4752 250.722 70.4752Z" fill="url(#paint4_linear)"/>
<path d="M79.0942 262.684C64.2653 262.684 54.0379 257.994 49.3104 248.938C40.8884 232.816 51.4097 204.569 77.4106 173.366C121.587 120.424 197.188 73.8923 245.94 69.6309C264.543 68.0061 277.252 72.6496 282.689 83.0659C291.086 99.1879 280.59 127.431 254.585 158.638C210.413 211.572 134.812 258.116 86.0678 262.369C83.6411 262.579 81.3165 262.684 79.0942 262.684ZM245.982 70.1137L246.024 70.6008C197.494 74.8328 122.174 121.221 78.1579 174.004C52.4005 204.884 41.938 232.724 50.1711 248.489C55.4108 258.519 67.8046 262.986 85.9712 261.399C134.505 257.167 209.825 210.778 253.837 157.991C279.595 127.116 290.057 99.2719 281.828 83.511C276.589 73.4767 264.195 69.0138 246.024 70.6008L245.982 70.1137Z" fill="url(#paint5_linear)"/>
<path d="M77.9856 262.734H77.9646C59.9407 262.734 47.845 256.898 42.9916 245.869C35.0146 227.719 47.7443 197.73 77.0913 165.645C125.705 112.518 205.064 69.2744 254.005 69.2744H254.03C272.054 69.2744 284.146 75.1102 289.003 86.1353C296.98 104.289 284.246 134.279 254.904 166.363C206.294 219.503 126.931 262.734 77.9856 262.734ZM254.005 70.2359C205.303 70.2359 126.263 113.324 77.8051 166.3C48.7267 198.091 36.0432 227.69 43.8775 245.479C48.5672 256.126 60.3522 261.756 77.9604 261.76H77.9814C126.683 261.76 205.727 218.676 254.186 165.696C283.26 133.905 295.943 104.306 288.113 86.5216C283.424 75.8744 271.639 70.2443 254.03 70.2359H254.005Z" fill="url(#paint6_linear)"/>
<path d="M78.0405 262.738C75.2192 262.738 72.493 262.614 69.862 262.365C52.4804 260.723 41.0733 253.636 36.8664 241.914C29.5527 221.543 44.7259 189.887 77.4443 157.24C130.517 104.281 213.369 64.9878 262.134 69.6355C279.515 71.2939 290.927 78.3641 295.133 90.0819C302.443 110.457 287.274 142.109 254.551 174.76C204.342 224.86 127.477 262.734 78.0405 262.738ZM253.922 70.2317C204.733 70.2317 128.178 107.988 78.1329 157.929C45.6832 190.303 30.6024 221.581 37.7859 241.587C41.8542 252.923 52.98 259.774 69.9585 261.395C118.463 266.013 200.975 226.85 253.85 174.067C286.333 141.693 301.397 110.419 294.218 90.4136C290.146 79.0778 279.02 72.2259 262.041 70.6053C259.43 70.3534 256.718 70.2317 253.922 70.2317Z" fill="url(#paint7_linear)"/>
<path d="M79.455 262.822C73.5383 262.865 67.6318 262.324 61.8216 261.206C45.1244 257.847 34.4645 249.475 31.0008 236.968C24.7032 214.2 42.4584 181.007 78.5314 148.184C136.029 95.8501 221.996 61.1458 270.173 70.8064C286.875 74.1652 297.535 82.5327 300.998 95.044C307.296 117.812 289.537 151.005 253.468 183.828C202.457 230.251 129.022 262.822 79.455 262.822ZM252.481 70.1557C203.17 70.1557 130.034 102.614 79.1863 148.889C43.3904 181.46 25.7276 214.288 31.9371 236.695C35.2958 248.829 45.6996 256.969 62.0147 260.24C67.7825 261.347 73.6452 261.882 79.518 261.84C128.824 261.84 201.961 229.386 252.813 183.11C288.605 150.535 306.267 117.711 300.062 95.3043C296.703 83.175 286.3 75.0343 269.984 71.7637C264.217 70.6544 258.354 70.1158 252.481 70.1557V70.1557Z" fill="url(#paint8_linear)"/>
<path d="M82.4741 263.091C71.9024 263.091 62.2586 261.832 53.9247 259.166C37.9286 254.069 28.0959 244.278 25.4887 230.856C20.5723 205.543 41.0984 171.003 80.4042 138.452C142.239 87.2437 230.914 57.8043 278.084 72.8347C294.084 77.9316 303.917 87.7181 306.52 101.145C311.432 126.453 290.897 160.998 251.596 193.548C200.685 235.692 131.625 263.091 82.4741 263.091ZM249.454 69.8664C200.559 69.8664 131.755 97.1898 81.0214 139.204C41.9843 171.519 21.5925 205.724 26.4501 230.671C28.9692 243.724 38.5878 253.254 54.2228 258.238C101.094 273.176 189.35 243.82 250.974 192.797C290.02 160.469 310.407 126.285 305.554 101.329C303.035 88.2765 293.416 78.7419 277.777 73.7625C269.51 71.1217 259.938 69.8664 249.454 69.8664Z" fill="url(#paint9_linear)"/>
<path d="M87.2937 263.767C71.5412 263.767 57.4848 261.344 46.2036 256.21C30.9171 249.27 21.9996 237.934 20.4168 223.437C17.3603 195.509 40.8002 159.872 83.1289 128.107C149.183 78.5107 240.104 55.0372 285.792 75.7817C301.078 82.7092 310 94.0449 311.583 108.555C314.635 136.487 291.195 172.136 248.883 203.889C199.136 241.234 135.299 263.767 87.2937 263.767ZM244.647 69.1818C196.907 69.1818 133.292 91.656 83.6957 128.892C41.6609 160.439 18.368 195.748 21.3824 223.357C22.9275 237.497 31.6518 248.548 46.6067 255.353C92.0044 275.968 182.485 252.54 248.3 203.133C290.334 171.578 313.632 136.269 310.617 108.668C309.072 94.5278 300.348 83.4775 285.389 76.676C274.2 71.5875 260.269 69.1818 244.647 69.1818Z" fill="url(#paint10_linear)"/>
<path d="M93.9987 265.052C72.0912 265.052 52.8918 260.946 38.7808 252.297C24.208 243.363 16.3192 230.305 15.9539 214.54C15.2822 183.993 41.7281 147.596 86.7144 117.166C156.866 69.7236 249.501 52.9298 293.215 79.7033C307.787 88.6376 315.68 101.695 316.033 117.464C316.718 148.003 290.267 184.404 245.281 214.834C197.776 246.969 139.951 265.052 93.9987 265.052ZM237.967 67.8931C192.242 67.8931 134.627 85.9464 87.2434 117.972C42.551 148.205 16.2604 184.312 16.9363 214.511C17.2848 229.936 25.0141 242.712 39.2888 251.457C82.7091 278.08 174.873 261.286 244.735 214.028C289.449 183.799 315.735 147.693 315.059 117.485C314.715 102.064 306.986 89.2841 292.707 80.5388C278.726 71.9614 259.69 67.8931 237.967 67.8931Z" fill="url(#paint11_linear)"/>
<path d="M102.488 267.163C73.5185 267.163 48.3531 260.719 31.7315 247.343C17.8766 236.204 11.1591 221.19 12.3305 203.922C14.543 170.923 44.0497 134.186 91.2611 105.654C165.292 60.9108 259.052 51.4937 300.272 84.6614C314.127 95.804 320.844 110.818 319.669 128.086C317.456 161.086 287.954 197.822 240.738 226.355C196.562 253.044 145.358 267.163 102.488 267.163ZM229.516 65.7768C186.843 65.7768 135.815 79.8625 91.7607 106.502C44.8222 134.854 15.4919 171.296 13.3045 203.985C12.1751 220.922 18.7499 235.654 32.3276 246.587C73.254 279.511 166.514 270.06 240.222 225.511C287.173 197.142 316.503 160.695 318.695 128.01C319.828 111.074 313.237 96.3456 299.659 85.4129C283.193 72.1626 258.246 65.7768 229.516 65.7768Z" fill="url(#paint12_linear)"/>
<path d="M112.388 270.342C75.6014 270.342 43.7269 260.706 25.1362 241.318C12.0581 227.677 6.74703 210.417 9.7783 191.411C15.3832 156.262 47.9085 119.706 96.7868 93.6252C174.458 52.1866 268.684 50.8682 306.86 90.6863C319.938 104.327 325.249 121.583 322.218 140.589C316.613 175.742 284.088 212.298 235.209 238.383C195.366 259.64 151.144 270.342 112.388 270.342ZM219.646 62.6029C181.045 62.6029 136.978 73.2753 97.2444 94.4816C48.6349 120.42 16.2985 156.711 10.7565 191.566C7.77564 210.258 12.9985 227.253 25.8709 240.642C63.7367 280.17 157.442 278.776 234.752 237.518C283.361 211.601 315.723 175.285 321.261 140.434C324.241 121.738 319.019 104.747 306.146 91.3538C287.744 72.1459 256.139 62.6029 219.646 62.6029V62.6029Z" fill="url(#paint13_linear)"/>
<path d="M123.073 274.771C78.0108 274.771 38.8519 260.878 19.094 234.168C6.88077 217.651 3.25752 197.826 8.59793 176.842C18.0024 140.026 53.4163 104.239 103.327 81.1178C184.332 43.5963 278.356 51.0948 312.901 97.8234C325.118 114.34 328.742 134.165 323.397 155.149C313.992 191.965 278.583 227.748 228.668 250.873C193.967 266.958 156.853 274.771 123.073 274.771ZM208.977 58.1775C175.331 58.1775 138.359 65.9656 103.756 81.9995C54.1048 105.003 18.8925 140.547 9.55938 177.082C4.27354 197.776 7.84221 217.315 19.8791 233.588C54.1846 279.977 147.654 287.328 228.244 250C277.894 226.997 313.107 191.449 322.44 154.922C327.726 134.232 324.157 114.693 312.12 98.4154C292.543 71.94 253.699 58.1775 208.977 58.1775Z" fill="url(#paint14_linear)"/>
<path d="M133.754 280.611C80.2954 280.611 33.5877 261.143 13.7039 225.876C2.51927 206.005 0.957445 183.27 9.19478 160.12C22.6718 122.297 60.697 87.9323 110.969 68.1954C194.938 35.2335 287.933 52.2414 318.292 106.141C329.481 125.995 331.039 148.726 322.801 171.88C309.345 209.704 271.299 244.068 221.027 263.826C192.033 275.187 161.951 280.607 133.754 280.611ZM198.297 52.3463C170.205 52.3463 140.232 57.7539 111.326 69.1023C61.2974 88.7342 23.4737 122.884 10.11 160.444C1.97347 183.325 3.5059 205.787 14.552 225.381C44.6842 278.861 137.146 295.688 220.695 262.898C270.707 243.262 308.544 209.116 321.907 171.553C330.048 148.675 328.511 126.209 317.465 106.615C297.741 71.6466 251.382 52.3463 198.297 52.3463Z" fill="url(#paint15_linear)"/>
<path d="M143.654 287.937C81.9366 287.937 27.8188 261.307 9.06013 216.358C-0.839789 192.637 0.134249 166.678 11.8689 141.248C29.4352 103.21 69.7402 70.9537 119.693 54.924C206.21 27.1849 297.388 54.4202 322.935 115.642C332.835 139.363 331.866 165.335 320.127 190.752C302.565 228.79 262.255 261.059 212.307 277.072C190.12 284.216 166.962 287.882 143.654 287.937V287.937ZM188.384 45.0283C165.163 45.077 142.091 48.724 119.987 55.8393C70.2944 71.7933 30.2035 103.861 12.7506 141.655C1.13348 166.817 0.155241 192.519 9.9586 215.968C28.5493 260.568 82.3187 286.968 143.612 286.972C166.837 286.921 189.914 283.269 212.021 276.148C261.718 260.194 301.805 228.139 319.258 190.34C330.879 165.179 331.853 139.481 322.05 116.028C303.434 71.4323 249.677 45.0283 188.384 45.0283Z" fill="url(#paint16_linear)"/>
<path d="M152.151 296.775C82.5202 296.775 21.5337 261.214 5.26474 205.64C-2.981 177.468 1.0621 147.978 16.9616 120.352C38.7935 82.4196 79.8248 53.6351 129.539 41.384C218.163 19.5521 306.62 57.6614 326.731 126.36C334.977 154.528 330.929 184.018 315.038 211.643C293.206 249.576 252.175 278.361 202.457 290.616C185.998 294.688 169.107 296.756 152.151 296.775V296.775ZM179.861 36.1948C162.979 36.2119 146.161 38.2716 129.774 42.3287C80.3119 54.5042 39.5072 83.1333 17.8055 120.84C2.04454 148.23 -1.96917 177.455 6.20099 205.367C22.344 260.517 82.9401 295.801 152.13 295.805C169.014 295.793 185.835 293.741 202.226 289.692C251.684 277.517 292.493 248.884 314.194 211.182C329.955 183.791 333.969 154.561 325.799 126.654C309.652 71.4827 249.056 36.1948 179.869 36.1948H179.861Z" fill="url(#paint17_linear)"/>
<path d="M158.831 307.103C81.6384 307.103 14.7531 260.664 2.42225 193.678C-3.60671 160.93 4.31155 126.851 24.716 97.6933C50.1627 61.3264 92.3654 35.7957 140.534 27.6507C230.729 12.3894 315.533 62.0402 329.577 138.322C335.602 171.069 327.684 205.144 307.279 234.306C281.833 270.673 239.617 296.2 191.449 304.349C180.672 306.176 169.761 307.097 158.831 307.103V307.103ZM173.173 25.8664C162.289 25.8712 151.424 26.7882 140.694 28.608C92.7853 36.711 50.8009 62.0947 25.5137 98.2433C5.26039 127.213 -2.60329 161.023 3.37949 193.502C15.6263 260.013 82.1002 306.129 158.827 306.133C169.709 306.127 180.572 305.209 191.302 303.387C239.202 295.284 281.182 269.901 306.486 233.748C326.743 204.804 334.615 170.977 328.624 138.498C316.373 71.9821 249.895 25.8664 173.173 25.8664Z" fill="url(#paint18_linear)"/>
<path d="M163.475 318.871C79.0147 318.876 7.55729 259.489 0.629861 180.466C-6.71741 96.5639 61.5031 21.7981 152.685 13.821C196.848 9.95847 239.756 22.1507 273.503 48.1517C307.25 74.1526 327.81 110.876 331.366 151.53C334.922 192.183 321.059 231.913 292.321 263.389C263.582 294.865 223.466 314.312 179.299 318.174C173.996 318.661 168.706 318.867 163.475 318.871ZM168.693 14.0939C163.412 14.0939 158.104 14.3262 152.769 14.7909C62.137 22.7217 -5.69299 97.0047 1.5997 180.382C8.46835 258.892 79.5269 317.893 163.479 317.897C168.685 317.897 173.934 317.668 179.227 317.209C223.147 313.363 263.062 294.017 291.615 262.734C320.169 231.451 333.931 191.999 330.417 151.618C326.903 111.237 306.486 74.7866 272.928 48.92C243.43 26.2064 206.912 14.0939 168.693 14.0939Z" fill="url(#paint19_linear)"/>
<path d="M165.998 332C74.4677 332 0 257.532 0 165.998C0 74.4635 74.4677 0 165.998 0C257.528 0 332 74.4677 332 165.998C332 257.528 257.532 332 165.998 332ZM165.998 0.974038C75.0051 0.974038 0.974038 75.0051 0.974038 165.998C0.974038 256.991 75.0051 331.026 165.998 331.026C256.991 331.026 331.026 256.995 331.026 165.998C331.026 75.0009 256.995 0.974038 165.998 0.974038V0.974038Z" fill="url(#paint20_linear)"/>
<defs>
<linearGradient id="paint0_linear" x1="166.003" y1="72.8652" x2="166.003" y2="259.115" gradientUnits="userSpaceOnUse">
<stop stop-color="#BA6FFB"/>
<stop offset="1" stop-color="#586DF3"/>
</linearGradient>
<linearGradient id="paint1_linear" x1="165.997" y1="71.6133" x2="165.997" y2="260.387" gradientUnits="userSpaceOnUse">
<stop stop-color="#BA6FFB"/>
<stop offset="1" stop-color="#586DF3"/>
</linearGradient>
<linearGradient id="paint2_linear" x1="165.999" y1="70.6445" x2="165.999" y2="261.353" gradientUnits="userSpaceOnUse">
<stop stop-color="#BA6FFB"/>
<stop offset="1" stop-color="#586DF3"/>
</linearGradient>
<linearGradient id="paint3_linear" x1="165.999" y1="69.9209" x2="165.999" y2="262.092" gradientUnits="userSpaceOnUse">
<stop stop-color="#BA6FFB"/>
<stop offset="1" stop-color="#586DF3"/>
</linearGradient>
<linearGradient id="paint4_linear" x1="165.99" y1="69.5049" x2="165.99" y2="262.495" gradientUnits="userSpaceOnUse">
<stop stop-color="#BA6FFB"/>
<stop offset="1" stop-color="#586DF3"/>
</linearGradient>
<linearGradient id="paint5_linear" x1="165.995" y1="69.314" x2="165.995" y2="262.684" gradientUnits="userSpaceOnUse">
<stop stop-color="#BA6FFB"/>
<stop offset="1" stop-color="#586DF3"/>
</linearGradient>
<linearGradient id="paint6_linear" x1="165.997" y1="69.2744" x2="165.997" y2="262.734" gradientUnits="userSpaceOnUse">
<stop stop-color="#BA6FFB"/>
<stop offset="1" stop-color="#586DF3"/>
</linearGradient>
<linearGradient id="paint7_linear" x1="165.999" y1="69.2622" x2="165.999" y2="262.738" gradientUnits="userSpaceOnUse">
<stop stop-color="#BA6FFB"/>
<stop offset="1" stop-color="#586DF3"/>
</linearGradient>
<linearGradient id="paint8_linear" x1="165.999" y1="69.1924" x2="165.999" y2="262.824" gradientUnits="userSpaceOnUse">
<stop stop-color="#BA6FFB"/>
<stop offset="1" stop-color="#586DF3"/>
</linearGradient>
<linearGradient id="paint9_linear" x1="166.003" y1="68.9072" x2="166.003" y2="263.091" gradientUnits="userSpaceOnUse">
<stop stop-color="#BA6FFB"/>
<stop offset="1" stop-color="#586DF3"/>
</linearGradient>
<linearGradient id="paint10_linear" x1="165.999" y1="68.2305" x2="165.999" y2="263.767" gradientUnits="userSpaceOnUse">
<stop stop-color="#BA6FFB"/>
<stop offset="1" stop-color="#586DF3"/>
</linearGradient>
<linearGradient id="paint11_linear" x1="165.994" y1="66.9604" x2="165.994" y2="265.052" gradientUnits="userSpaceOnUse">
<stop stop-color="#BA6FFB"/>
<stop offset="1" stop-color="#586DF3"/>
</linearGradient>
<linearGradient id="paint12_linear" x1="166" y1="64.835" x2="166" y2="267.163" gradientUnits="userSpaceOnUse">
<stop stop-color="#BA6FFB"/>
<stop offset="1" stop-color="#586DF3"/>
</linearGradient>
<linearGradient id="paint13_linear" x1="165.998" y1="61.6636" x2="165.998" y2="270.342" gradientUnits="userSpaceOnUse">
<stop stop-color="#BA6FFB"/>
<stop offset="1" stop-color="#586DF3"/>
</linearGradient>
<linearGradient id="paint14_linear" x1="165.999" y1="57.2271" x2="165.999" y2="274.771" gradientUnits="userSpaceOnUse">
<stop stop-color="#BA6FFB"/>
<stop offset="1" stop-color="#586DF3"/>
</linearGradient>
<linearGradient id="paint15_linear" x1="165.999" y1="51.3857" x2="165.999" y2="280.611" gradientUnits="userSpaceOnUse">
<stop stop-color="#BA6FFB"/>
<stop offset="1" stop-color="#586DF3"/>
</linearGradient>
<linearGradient id="paint16_linear" x1="165.998" y1="44.0625" x2="165.998" y2="287.937" gradientUnits="userSpaceOnUse">
<stop stop-color="#BA6FFB"/>
<stop offset="1" stop-color="#586DF3"/>
</linearGradient>
<linearGradient id="paint17_linear" x1="165.997" y1="35.23" x2="165.997" y2="296.775" gradientUnits="userSpaceOnUse">
<stop stop-color="#BA6FFB"/>
<stop offset="1" stop-color="#586DF3"/>
</linearGradient>
<linearGradient id="paint18_linear" x1="165.999" y1="24.894" x2="165.999" y2="307.103" gradientUnits="userSpaceOnUse">
<stop stop-color="#BA6FFB"/>
<stop offset="1" stop-color="#586DF3"/>
</linearGradient>
<linearGradient id="paint19_linear" x1="166.001" y1="13.1201" x2="166.001" y2="318.871" gradientUnits="userSpaceOnUse">
<stop stop-color="#BA6FFB"/>
<stop offset="1" stop-color="#586DF3"/>
</linearGradient>
<linearGradient id="paint20_linear" x1="166" y1="0" x2="166" y2="332" gradientUnits="userSpaceOnUse">
<stop stop-color="#BA6FFB"/>
<stop offset="1" stop-color="#586DF3"/>
</linearGradient>
</defs>
</svg>
