<svg width="372" height="372" viewBox="0 0 372 372" fill="none" xmlns="http://www.w3.org/2000/svg">
<path fill-rule="evenodd" clip-rule="evenodd" d="M94.4111 94.4111C43.8279 144.994 43.8279 227.006 94.4111 277.589C144.994 328.172 227.006 328.172 277.589 277.589C328.172 227.006 328.172 144.994 277.589 94.4111C227.006 43.8279 144.994 43.8279 94.4111 94.4111ZM93 279C41.6375 227.638 41.6375 144.362 93 93C144.362 41.6375 227.638 41.6375 279 93C330.363 144.362 330.363 227.638 279 279C227.638 330.362 144.362 330.362 93 279Z" fill="url(#paint0_linear)"/>
<path fill-rule="evenodd" clip-rule="evenodd" d="M99.989 119.219C56.8135 162.394 56.8135 232.396 99.989 275.571C143.164 318.747 213.166 318.747 256.341 275.571C299.517 232.396 299.517 162.394 256.341 119.219C213.166 76.0434 143.164 76.0434 99.989 119.219ZM98.719 276.841C54.8422 232.964 54.8422 161.826 98.719 117.949C142.596 74.072 213.734 74.072 257.611 117.949C301.488 161.826 301.488 232.964 257.611 276.841C213.734 320.718 142.596 320.718 98.719 276.841Z" fill="url(#paint1_linear)"/>
<path fill-rule="evenodd" clip-rule="evenodd" d="M170.351 117.221C119.767 117.221 78.7615 158.227 78.7615 208.811C78.7615 259.394 119.767 300.4 170.351 300.4C220.934 300.4 261.94 259.394 261.94 208.811C261.94 158.227 220.934 117.221 170.351 117.221ZM77.165 208.811C77.165 157.346 118.886 115.625 170.351 115.625C221.816 115.625 263.536 157.346 263.536 208.811C263.536 260.276 221.816 301.996 170.351 301.996C118.886 301.996 77.165 260.276 77.165 208.811Z" fill="url(#paint2_linear)"/>
<path fill-rule="evenodd" clip-rule="evenodd" d="M162.509 147.613C122.412 147.613 89.9062 180.118 89.9062 220.215C89.9062 260.313 122.412 292.818 162.509 292.818C202.606 292.818 235.112 260.313 235.112 220.215C235.112 180.118 202.606 147.613 162.509 147.613ZM88.5093 220.215C88.5093 179.347 121.64 146.216 162.509 146.216C203.378 146.216 236.509 179.347 236.509 220.215C236.509 261.084 203.378 294.215 162.509 294.215C121.64 294.215 88.5093 261.084 88.5093 220.215Z" fill="url(#paint3_linear)"/>
<path fill-rule="evenodd" clip-rule="evenodd" d="M154.684 177.987C125.062 177.987 101.049 202 101.049 231.621C101.049 261.242 125.062 285.255 154.684 285.255C184.305 285.255 208.318 261.242 208.318 231.621C208.318 202 184.305 177.987 154.684 177.987ZM99.8521 231.621C99.8521 201.338 124.401 176.79 154.684 176.79C184.966 176.79 209.515 201.338 209.515 231.621C209.515 261.904 184.966 286.453 154.684 286.453C124.401 286.453 99.8521 261.904 99.8521 231.621Z" fill="url(#paint4_linear)"/>
<path fill-rule="evenodd" clip-rule="evenodd" d="M146.86 208.361C127.714 208.361 112.194 223.881 112.194 243.026C112.194 262.171 127.714 277.692 146.86 277.692C166.005 277.692 181.525 262.171 181.525 243.026C181.525 223.881 166.005 208.361 146.86 208.361ZM111.196 243.026C111.196 223.33 127.163 207.363 146.86 207.363C166.556 207.363 182.523 223.33 182.523 243.026C182.523 262.723 166.556 278.69 146.86 278.69C127.163 278.69 111.196 262.723 111.196 243.026Z" fill="url(#paint5_linear)"/>
<defs>
<linearGradient id="paint0_linear" x1="93" y1="93" x2="279" y2="279" gradientUnits="userSpaceOnUse">
<stop stop-color="#944C96"/>
<stop offset="0.510417" stop-color="#3A3873"/>
<stop offset="1" stop-color="#0038FF" stop-opacity="0"/>
</linearGradient>
<linearGradient id="paint1_linear" x1="98.719" y1="117.949" x2="257.611" y2="276.841" gradientUnits="userSpaceOnUse">
<stop stop-color="#944C96"/>
<stop offset="0.510417" stop-color="#3A3873"/>
<stop offset="1" stop-color="#0038FF" stop-opacity="0"/>
</linearGradient>
<linearGradient id="paint2_linear" x1="170.351" y1="115.625" x2="170.351" y2="301.996" gradientUnits="userSpaceOnUse">
<stop stop-color="#944C96"/>
<stop offset="0.510417" stop-color="#3A3873"/>
<stop offset="1" stop-color="#0038FF" stop-opacity="0"/>
</linearGradient>
<linearGradient id="paint3_linear" x1="162.509" y1="146.216" x2="162.509" y2="294.215" gradientUnits="userSpaceOnUse">
<stop stop-color="#944C96"/>
<stop offset="0.510417" stop-color="#3A3873"/>
<stop offset="1" stop-color="#0038FF" stop-opacity="0"/>
</linearGradient>
<linearGradient id="paint4_linear" x1="154.684" y1="176.79" x2="154.684" y2="286.453" gradientUnits="userSpaceOnUse">
<stop stop-color="#944C96"/>
<stop offset="0.510417" stop-color="#3A3873"/>
<stop offset="1" stop-color="#0038FF" stop-opacity="0"/>
</linearGradient>
<linearGradient id="paint5_linear" x1="146.86" y1="207.363" x2="146.86" y2="278.69" gradientUnits="userSpaceOnUse">
<stop stop-color="#944C96"/>
<stop offset="0.510417" stop-color="#3A3873"/>
<stop offset="1" stop-color="#0038FF" stop-opacity="0"/>
</linearGradient>
</defs>
</svg>
