<svg width="240" height="240" viewBox="0 0 240 240" fill="none" xmlns="http://www.w3.org/2000/svg">
<path d="M240 120.006L131.404 120.748L239.145 134.409L131.247 122.121L236.546 148.688L130.92 123.426L232.213 162.573L130.448 124.675L226.25 175.817L129.818 125.879L218.733 188.217L129.019 127.027L209.81 199.593L128.085 128.085L199.593 209.821L127.027 129.03L188.206 218.744L125.879 129.818L175.817 226.25L124.675 130.448L162.573 232.225L123.426 130.92L148.688 236.546L122.121 131.247L134.397 239.145L120.748 131.404L120.006 240L119.263 131.404L105.603 239.145L117.879 131.247L91.3123 236.546L116.585 130.92L77.427 232.213L115.336 130.448L64.183 226.25L114.132 129.818L51.783 218.733L112.984 129.019L40.407 209.81L111.926 128.085L30.1899 199.593L110.981 127.027L21.2556 188.206L110.182 125.879L13.7503 175.817L109.552 124.675L7.78658 162.573L109.08 123.426L3.4657 148.688L108.765 122.121L0.866426 134.397L108.596 120.748L0 120.006L108.596 119.263L0.866426 105.603L108.765 117.879L3.4657 91.3123L109.08 116.585L7.78658 77.427L109.552 115.336L13.7503 64.183L110.182 114.132L21.2668 51.783L110.981 112.984L30.1899 40.407L111.926 111.926L40.4182 30.1899L112.984 110.981L51.7943 21.2556L114.132 110.182L64.1943 13.7503L115.336 109.552L77.4382 7.78658L116.585 109.08L91.3236 3.4657L117.879 108.765L105.603 0.866426L119.263 108.596L120.006 0L120.748 108.596L134.409 0.866426L122.121 108.765L148.688 3.4657L123.426 109.08L162.573 7.78658L124.675 109.552L175.817 13.7503L125.879 110.182L188.217 21.2668L127.027 110.981L199.593 30.1899L128.085 111.926L209.821 40.4182L129.03 112.984L218.744 51.7943L129.818 114.132L226.25 64.1943L130.448 115.336L232.225 77.4382L130.92 116.585L236.546 91.3236L131.247 117.879L239.145 105.603L131.404 119.263L240 120.006Z" fill="url(#paint0_linear)"/>
<defs>
<linearGradient id="paint0_linear" x1="120" y1="0" x2="120" y2="240" gradientUnits="userSpaceOnUse">
<stop stop-color="#586DF3"/>
<stop offset="1" stop-color="#BA6FFB"/>
</linearGradient>
</defs>
</svg>
