<svg width="304" height="304" viewBox="0 0 304 304" fill="none" xmlns="http://www.w3.org/2000/svg">
<g clip-path="url(#clip0)">
<path fill-rule="evenodd" clip-rule="evenodd" d="M201.793 152.811L304 152.811L304 153.811L201.793 153.811L201.793 152.811Z" fill="url(#paint0_linear)"/>
<path fill-rule="evenodd" clip-rule="evenodd" d="M201.61 147.598L303.24 136.906L303.345 137.9L201.714 148.593L201.61 147.598Z" fill="url(#paint1_linear)"/>
<path fill-rule="evenodd" clip-rule="evenodd" d="M200.876 142.444L300.856 121.19L301.063 122.168L201.084 143.422L200.876 142.444Z" fill="url(#paint2_linear)"/>
<path fill-rule="evenodd" clip-rule="evenodd" d="M199.594 137.372L296.822 105.793L297.131 106.744L199.903 138.323L199.594 137.372Z" fill="url(#paint3_linear)"/>
<path fill-rule="evenodd" clip-rule="evenodd" d="M197.816 132.491L291.191 90.9268L291.598 91.8403L198.222 133.404L197.816 132.491Z" fill="url(#paint4_linear)"/>
<path fill-rule="evenodd" clip-rule="evenodd" d="M195.516 127.798L284.043 76.6943L284.543 77.5604L196.016 128.664L195.516 127.798Z" fill="url(#paint5_linear)"/>
<path fill-rule="evenodd" clip-rule="evenodd" d="M192.772 123.397L275.455 63.3047L276.043 64.1136L193.36 124.206L192.772 123.397Z" fill="url(#paint6_linear)"/>
<path fill-rule="evenodd" clip-rule="evenodd" d="M189.535 119.289L265.509 50.8892L266.178 51.6323L190.204 120.032L189.535 119.289Z" fill="url(#paint7_linear)"/>
<path fill-rule="evenodd" clip-rule="evenodd" d="M185.933 115.526L254.307 39.5786L255.05 40.2477L186.676 116.195L185.933 115.526Z" fill="url(#paint8_linear)"/>
<path fill-rule="evenodd" clip-rule="evenodd" d="M181.917 112.186L242.009 29.5034L242.818 30.0913L182.726 112.774L181.917 112.186Z" fill="url(#paint9_linear)"/>
<path fill-rule="evenodd" clip-rule="evenodd" d="M177.59 109.295L228.694 20.7681L229.56 21.268L178.456 109.795L177.59 109.295Z" fill="url(#paint10_linear)"/>
<path fill-rule="evenodd" clip-rule="evenodd" d="M172.981 106.852L214.571 13.4771L215.484 13.8839L173.894 107.259L172.981 106.852Z" fill="url(#paint11_linear)"/>
<path fill-rule="evenodd" clip-rule="evenodd" d="M168.166 104.883L199.745 7.68164L200.696 7.99063L169.117 105.192L168.166 104.883Z" fill="url(#paint12_linear)"/>
<path fill-rule="evenodd" clip-rule="evenodd" d="M163.147 103.466L184.401 3.48633L185.379 3.69426L164.125 103.674L163.147 103.466Z" fill="url(#paint13_linear)"/>
<path fill-rule="evenodd" clip-rule="evenodd" d="M158.003 102.574L168.695 0.91748L169.689 1.02209L158.997 102.679L158.003 102.574Z" fill="url(#paint14_linear)"/>
<path fill-rule="evenodd" clip-rule="evenodd" d="M152.811 102.207L152.811 -4.37114e-08L153.811 0L153.811 102.207L152.811 102.207Z" fill="url(#paint15_linear)"/>
<path fill-rule="evenodd" clip-rule="evenodd" d="M147.598 102.39L136.906 0.759904L137.9 0.655273L148.593 102.286L147.598 102.39Z" fill="url(#paint16_linear)"/>
<path fill-rule="evenodd" clip-rule="evenodd" d="M142.443 103.123L121.189 3.14397L122.167 2.93603L143.421 102.915L142.443 103.123Z" fill="url(#paint17_linear)"/>
<path fill-rule="evenodd" clip-rule="evenodd" d="M137.372 104.406L105.793 7.17805L106.744 6.86914L138.323 104.097L137.372 104.406Z" fill="url(#paint18_linear)"/>
<path fill-rule="evenodd" clip-rule="evenodd" d="M132.491 106.184L90.9265 12.809L91.8401 12.4023L133.404 105.778L132.491 106.184Z" fill="url(#paint19_linear)"/>
<path fill-rule="evenodd" clip-rule="evenodd" d="M127.797 108.484L76.6936 19.9575L77.5597 19.4575L128.663 107.984L127.797 108.484Z" fill="url(#paint20_linear)"/>
<path fill-rule="evenodd" clip-rule="evenodd" d="M123.397 111.228L63.3047 28.5449L64.1136 27.957L124.206 110.64L123.397 111.228Z" fill="url(#paint21_linear)"/>
<path fill-rule="evenodd" clip-rule="evenodd" d="M119.289 114.466L50.8891 38.4918L51.6322 37.8228L120.032 113.797L119.289 114.466Z" fill="url(#paint22_linear)"/>
<path fill-rule="evenodd" clip-rule="evenodd" d="M115.526 118.067L39.5787 49.6929L40.2478 48.9497L116.195 117.324L115.526 118.067Z" fill="url(#paint23_linear)"/>
<path fill-rule="evenodd" clip-rule="evenodd" d="M112.186 122.083L29.5028 61.9906L30.0907 61.1816L112.773 121.274L112.186 122.083Z" fill="url(#paint24_linear)"/>
<path fill-rule="evenodd" clip-rule="evenodd" d="M109.295 126.409L20.7681 75.306L21.268 74.4399L109.795 125.543L109.295 126.409Z" fill="url(#paint25_linear)"/>
<path fill-rule="evenodd" clip-rule="evenodd" d="M106.852 131.02L13.4768 89.4296L13.8836 88.5161L107.259 130.106L106.852 131.02Z" fill="url(#paint26_linear)"/>
<path fill-rule="evenodd" clip-rule="evenodd" d="M104.883 135.834L7.68201 104.255L7.99099 103.304L105.192 134.883L104.883 135.834Z" fill="url(#paint27_linear)"/>
<path fill-rule="evenodd" clip-rule="evenodd" d="M103.466 140.854L3.4866 119.6L3.69453 118.622L103.674 139.875L103.466 140.854Z" fill="url(#paint28_linear)"/>
<path fill-rule="evenodd" clip-rule="evenodd" d="M102.574 145.998L0.917557 135.306L1.02216 134.311L102.679 145.003L102.574 145.998Z" fill="url(#paint29_linear)"/>
<path fill-rule="evenodd" clip-rule="evenodd" d="M102.207 151.189L0.000152544 151.189L0.000152588 150.189L102.207 150.189L102.207 151.189Z" fill="url(#paint30_linear)"/>
<path fill-rule="evenodd" clip-rule="evenodd" d="M102.391 156.403L0.760253 167.095L0.655624 166.101L102.286 155.408L102.391 156.403Z" fill="url(#paint31_linear)"/>
<path fill-rule="evenodd" clip-rule="evenodd" d="M103.123 161.557L3.1438 182.811L2.93587 181.832L102.915 160.579L103.123 161.557Z" fill="url(#paint32_linear)"/>
<path fill-rule="evenodd" clip-rule="evenodd" d="M104.405 166.627L7.17769 198.206L6.86879 197.255L104.096 165.676L104.405 166.627Z" fill="url(#paint33_linear)"/>
<path fill-rule="evenodd" clip-rule="evenodd" d="M106.185 171.509L12.8094 213.073L12.4027 212.16L105.778 170.596L106.185 171.509Z" fill="url(#paint34_linear)"/>
<path fill-rule="evenodd" clip-rule="evenodd" d="M108.484 176.202L19.9575 227.306L19.4575 226.44L107.984 175.336L108.484 176.202Z" fill="url(#paint35_linear)"/>
<path fill-rule="evenodd" clip-rule="evenodd" d="M111.228 180.603L28.5448 240.695L27.9568 239.886L110.64 179.794L111.228 180.603Z" fill="url(#paint36_linear)"/>
<path fill-rule="evenodd" clip-rule="evenodd" d="M114.466 184.71L38.492 253.11L37.8229 252.367L113.797 183.967L114.466 184.71Z" fill="url(#paint37_linear)"/>
<path fill-rule="evenodd" clip-rule="evenodd" d="M118.066 188.474L49.6926 264.421L48.9494 263.752L117.323 187.805L118.066 188.474Z" fill="url(#paint38_linear)"/>
<path fill-rule="evenodd" clip-rule="evenodd" d="M122.083 191.814L61.9906 274.497L61.1816 273.909L121.274 191.226L122.083 191.814Z" fill="url(#paint39_linear)"/>
<path fill-rule="evenodd" clip-rule="evenodd" d="M126.409 194.706L75.3057 283.232L74.4396 282.732L125.543 194.206L126.409 194.706Z" fill="url(#paint40_linear)"/>
<path fill-rule="evenodd" clip-rule="evenodd" d="M131.02 197.148L89.4292 290.523L88.5157 290.116L130.106 196.741L131.02 197.148Z" fill="url(#paint41_linear)"/>
<path fill-rule="evenodd" clip-rule="evenodd" d="M135.834 199.117L104.255 296.319L103.304 296.01L134.883 198.808L135.834 199.117Z" fill="url(#paint42_linear)"/>
<path fill-rule="evenodd" clip-rule="evenodd" d="M140.854 200.535L119.6 300.514L118.622 300.306L139.875 200.327L140.854 200.535Z" fill="url(#paint43_linear)"/>
<path fill-rule="evenodd" clip-rule="evenodd" d="M145.998 201.426L135.306 303.082L134.311 302.978L145.004 201.321L145.998 201.426Z" fill="url(#paint44_linear)"/>
<path fill-rule="evenodd" clip-rule="evenodd" d="M151.189 201.793L151.189 304L150.189 304L150.189 201.793L151.189 201.793Z" fill="url(#paint45_linear)"/>
<path fill-rule="evenodd" clip-rule="evenodd" d="M156.402 201.61L167.095 303.24L166.1 303.345L155.408 201.714L156.402 201.61Z" fill="url(#paint46_linear)"/>
<path fill-rule="evenodd" clip-rule="evenodd" d="M161.557 200.876L182.811 300.856L181.832 301.064L160.579 201.084L161.557 200.876Z" fill="url(#paint47_linear)"/>
<path fill-rule="evenodd" clip-rule="evenodd" d="M166.628 199.595L198.207 296.822L197.256 297.131L165.677 199.904L166.628 199.595Z" fill="url(#paint48_linear)"/>
<path fill-rule="evenodd" clip-rule="evenodd" d="M171.509 197.816L213.073 291.191L212.16 291.598L170.596 198.223L171.509 197.816Z" fill="url(#paint49_linear)"/>
<path fill-rule="evenodd" clip-rule="evenodd" d="M176.202 195.516L227.306 284.043L226.44 284.542L175.336 196.016L176.202 195.516Z" fill="url(#paint50_linear)"/>
<path fill-rule="evenodd" clip-rule="evenodd" d="M180.603 192.772L240.695 275.455L239.886 276.043L179.794 193.36L180.603 192.772Z" fill="url(#paint51_linear)"/>
<path fill-rule="evenodd" clip-rule="evenodd" d="M184.71 189.535L253.11 265.508L252.367 266.178L183.967 190.204L184.71 189.535Z" fill="url(#paint52_linear)"/>
<path fill-rule="evenodd" clip-rule="evenodd" d="M188.474 185.907L264.422 254.307L263.753 255.05L187.805 186.65L188.474 185.907Z" fill="url(#paint53_linear)"/>
<path fill-rule="evenodd" clip-rule="evenodd" d="M191.813 181.917L274.496 242.009L273.908 242.818L191.225 182.725L191.813 181.917Z" fill="url(#paint54_linear)"/>
<path fill-rule="evenodd" clip-rule="evenodd" d="M194.706 177.591L283.232 228.694L282.732 229.56L194.206 178.457L194.706 177.591Z" fill="url(#paint55_linear)"/>
<path fill-rule="evenodd" clip-rule="evenodd" d="M197.148 172.98L290.523 214.571L290.117 215.484L196.741 173.894L197.148 172.98Z" fill="url(#paint56_linear)"/>
<path fill-rule="evenodd" clip-rule="evenodd" d="M199.117 168.166L296.318 199.745L296.009 200.696L198.808 169.117L199.117 168.166Z" fill="url(#paint57_linear)"/>
<path fill-rule="evenodd" clip-rule="evenodd" d="M200.534 163.146L300.514 184.4L300.306 185.378L200.326 164.125L200.534 163.146Z" fill="url(#paint58_linear)"/>
<path fill-rule="evenodd" clip-rule="evenodd" d="M201.426 158.002L303.083 168.694L302.978 169.689L201.322 158.996L201.426 158.002Z" fill="url(#paint59_linear)"/>
</g>
<defs>
<linearGradient id="paint0_linear" x1="304" y1="153.311" x2="201.793" y2="153.311" gradientUnits="userSpaceOnUse">
<stop stop-color="#FF9191"/>
<stop offset="1" stop-color="#4D49FF"/>
</linearGradient>
<linearGradient id="paint1_linear" x1="303.345" y1="142.749" x2="201.61" y2="142.749" gradientUnits="userSpaceOnUse">
<stop stop-color="#FF9191"/>
<stop offset="1" stop-color="#4D49FF"/>
</linearGradient>
<linearGradient id="paint2_linear" x1="301.063" y1="132.306" x2="200.876" y2="132.306" gradientUnits="userSpaceOnUse">
<stop stop-color="#FF9191"/>
<stop offset="1" stop-color="#4D49FF"/>
</linearGradient>
<linearGradient id="paint3_linear" x1="297.131" y1="122.058" x2="199.594" y2="122.058" gradientUnits="userSpaceOnUse">
<stop stop-color="#FF9191"/>
<stop offset="1" stop-color="#4D49FF"/>
</linearGradient>
<linearGradient id="paint4_linear" x1="291.598" y1="112.166" x2="197.816" y2="112.166" gradientUnits="userSpaceOnUse">
<stop stop-color="#FF9191"/>
<stop offset="1" stop-color="#4D49FF"/>
</linearGradient>
<linearGradient id="paint5_linear" x1="284.543" y1="102.679" x2="195.516" y2="102.679" gradientUnits="userSpaceOnUse">
<stop stop-color="#FF9191"/>
<stop offset="1" stop-color="#4D49FF"/>
</linearGradient>
<linearGradient id="paint6_linear" x1="276.043" y1="93.7554" x2="192.772" y2="93.7554" gradientUnits="userSpaceOnUse">
<stop stop-color="#FF9191"/>
<stop offset="1" stop-color="#4D49FF"/>
</linearGradient>
<linearGradient id="paint7_linear" x1="266.178" y1="85.4607" x2="189.535" y2="85.4607" gradientUnits="userSpaceOnUse">
<stop stop-color="#FF9191"/>
<stop offset="1" stop-color="#4D49FF"/>
</linearGradient>
<linearGradient id="paint8_linear" x1="255.05" y1="77.8869" x2="185.933" y2="77.8869" gradientUnits="userSpaceOnUse">
<stop stop-color="#FF9191"/>
<stop offset="1" stop-color="#4D49FF"/>
</linearGradient>
<linearGradient id="paint9_linear" x1="242.818" y1="71.1388" x2="181.917" y2="71.1388" gradientUnits="userSpaceOnUse">
<stop stop-color="#FF9191"/>
<stop offset="1" stop-color="#4D49FF"/>
</linearGradient>
<linearGradient id="paint10_linear" x1="229.56" y1="65.2815" x2="177.59" y2="65.2815" gradientUnits="userSpaceOnUse">
<stop stop-color="#FF9191"/>
<stop offset="1" stop-color="#4D49FF"/>
</linearGradient>
<linearGradient id="paint11_linear" x1="215.484" y1="60.3681" x2="172.981" y2="60.3681" gradientUnits="userSpaceOnUse">
<stop stop-color="#FF9191"/>
<stop offset="1" stop-color="#4D49FF"/>
</linearGradient>
<linearGradient id="paint12_linear" x1="200.696" y1="56.4368" x2="168.166" y2="56.4368" gradientUnits="userSpaceOnUse">
<stop stop-color="#FF9191"/>
<stop offset="1" stop-color="#4D49FF"/>
</linearGradient>
<linearGradient id="paint13_linear" x1="185.379" y1="53.5799" x2="163.147" y2="53.5799" gradientUnits="userSpaceOnUse">
<stop stop-color="#FF9191"/>
<stop offset="1" stop-color="#4D49FF"/>
</linearGradient>
<linearGradient id="paint14_linear" x1="169.689" y1="51.7981" x2="158.003" y2="51.7981" gradientUnits="userSpaceOnUse">
<stop stop-color="#FF9191"/>
<stop offset="1" stop-color="#4D49FF"/>
</linearGradient>
<linearGradient id="paint15_linear" x1="153.811" y1="51.1034" x2="152.811" y2="51.1034" gradientUnits="userSpaceOnUse">
<stop stop-color="#FF9191"/>
<stop offset="1" stop-color="#4D49FF"/>
</linearGradient>
<linearGradient id="paint16_linear" x1="148.593" y1="51.5228" x2="136.906" y2="51.5228" gradientUnits="userSpaceOnUse">
<stop stop-color="#FF9191"/>
<stop offset="1" stop-color="#4D49FF"/>
</linearGradient>
<linearGradient id="paint17_linear" x1="143.421" y1="53.0297" x2="121.189" y2="53.0297" gradientUnits="userSpaceOnUse">
<stop stop-color="#FF9191"/>
<stop offset="1" stop-color="#4D49FF"/>
</linearGradient>
<linearGradient id="paint18_linear" x1="138.323" y1="55.6374" x2="105.793" y2="55.6374" gradientUnits="userSpaceOnUse">
<stop stop-color="#FF9191"/>
<stop offset="1" stop-color="#4D49FF"/>
</linearGradient>
<linearGradient id="paint19_linear" x1="133.404" y1="59.2933" x2="90.9265" y2="59.2933" gradientUnits="userSpaceOnUse">
<stop stop-color="#FF9191"/>
<stop offset="1" stop-color="#4D49FF"/>
</linearGradient>
<linearGradient id="paint20_linear" x1="128.663" y1="63.9709" x2="76.6936" y2="63.9709" gradientUnits="userSpaceOnUse">
<stop stop-color="#FF9191"/>
<stop offset="1" stop-color="#4D49FF"/>
</linearGradient>
<linearGradient id="paint21_linear" x1="124.206" y1="69.5924" x2="63.3047" y2="69.5924" gradientUnits="userSpaceOnUse">
<stop stop-color="#FF9191"/>
<stop offset="1" stop-color="#4D49FF"/>
</linearGradient>
<linearGradient id="paint22_linear" x1="120.032" y1="76.1442" x2="50.8891" y2="76.1442" gradientUnits="userSpaceOnUse">
<stop stop-color="#FF9191"/>
<stop offset="1" stop-color="#4D49FF"/>
</linearGradient>
<linearGradient id="paint23_linear" x1="116.195" y1="83.5082" x2="39.5787" y2="83.5082" gradientUnits="userSpaceOnUse">
<stop stop-color="#FF9191"/>
<stop offset="1" stop-color="#4D49FF"/>
</linearGradient>
<linearGradient id="paint24_linear" x1="112.773" y1="91.6323" x2="29.5028" y2="91.6323" gradientUnits="userSpaceOnUse">
<stop stop-color="#FF9191"/>
<stop offset="1" stop-color="#4D49FF"/>
</linearGradient>
<linearGradient id="paint25_linear" x1="109.795" y1="100.425" x2="20.7681" y2="100.425" gradientUnits="userSpaceOnUse">
<stop stop-color="#FF9191"/>
<stop offset="1" stop-color="#4D49FF"/>
</linearGradient>
<linearGradient id="paint26_linear" x1="107.259" y1="109.768" x2="13.4768" y2="109.768" gradientUnits="userSpaceOnUse">
<stop stop-color="#FF9191"/>
<stop offset="1" stop-color="#4D49FF"/>
</linearGradient>
<linearGradient id="paint27_linear" x1="105.192" y1="119.569" x2="7.68201" y2="119.569" gradientUnits="userSpaceOnUse">
<stop stop-color="#FF9191"/>
<stop offset="1" stop-color="#4D49FF"/>
</linearGradient>
<linearGradient id="paint28_linear" x1="103.674" y1="129.738" x2="3.4866" y2="129.738" gradientUnits="userSpaceOnUse">
<stop stop-color="#FF9191"/>
<stop offset="1" stop-color="#4D49FF"/>
</linearGradient>
<linearGradient id="paint29_linear" x1="102.679" y1="140.154" x2="0.917557" y2="140.154" gradientUnits="userSpaceOnUse">
<stop stop-color="#FF9191"/>
<stop offset="1" stop-color="#4D49FF"/>
</linearGradient>
<linearGradient id="paint30_linear" x1="102.207" y1="150.689" x2="0.000152566" y2="150.689" gradientUnits="userSpaceOnUse">
<stop stop-color="#FF9191"/>
<stop offset="1" stop-color="#4D49FF"/>
</linearGradient>
<linearGradient id="paint31_linear" x1="102.391" y1="161.252" x2="0.655624" y2="161.252" gradientUnits="userSpaceOnUse">
<stop stop-color="#FF9191"/>
<stop offset="1" stop-color="#4D49FF"/>
</linearGradient>
<linearGradient id="paint32_linear" x1="103.123" y1="171.695" x2="2.93587" y2="171.695" gradientUnits="userSpaceOnUse">
<stop stop-color="#FF9191"/>
<stop offset="1" stop-color="#4D49FF"/>
</linearGradient>
<linearGradient id="paint33_linear" x1="104.405" y1="181.941" x2="6.86879" y2="181.941" gradientUnits="userSpaceOnUse">
<stop stop-color="#FF9191"/>
<stop offset="1" stop-color="#4D49FF"/>
</linearGradient>
<linearGradient id="paint34_linear" x1="106.185" y1="191.835" x2="12.4027" y2="191.835" gradientUnits="userSpaceOnUse">
<stop stop-color="#FF9191"/>
<stop offset="1" stop-color="#4D49FF"/>
</linearGradient>
<linearGradient id="paint35_linear" x1="108.484" y1="201.321" x2="19.4575" y2="201.321" gradientUnits="userSpaceOnUse">
<stop stop-color="#FF9191"/>
<stop offset="1" stop-color="#4D49FF"/>
</linearGradient>
<linearGradient id="paint36_linear" x1="111.228" y1="210.245" x2="27.9568" y2="210.245" gradientUnits="userSpaceOnUse">
<stop stop-color="#FF9191"/>
<stop offset="1" stop-color="#4D49FF"/>
</linearGradient>
<linearGradient id="paint37_linear" x1="114.466" y1="218.539" x2="37.8229" y2="218.539" gradientUnits="userSpaceOnUse">
<stop stop-color="#FF9191"/>
<stop offset="1" stop-color="#4D49FF"/>
</linearGradient>
<linearGradient id="paint38_linear" x1="118.066" y1="226.113" x2="48.9494" y2="226.113" gradientUnits="userSpaceOnUse">
<stop stop-color="#FF9191"/>
<stop offset="1" stop-color="#4D49FF"/>
</linearGradient>
<linearGradient id="paint39_linear" x1="122.083" y1="232.861" x2="61.1816" y2="232.861" gradientUnits="userSpaceOnUse">
<stop stop-color="#FF9191"/>
<stop offset="1" stop-color="#4D49FF"/>
</linearGradient>
<linearGradient id="paint40_linear" x1="126.409" y1="238.719" x2="74.4396" y2="238.719" gradientUnits="userSpaceOnUse">
<stop stop-color="#FF9191"/>
<stop offset="1" stop-color="#4D49FF"/>
</linearGradient>
<linearGradient id="paint41_linear" x1="131.02" y1="243.632" x2="88.5157" y2="243.632" gradientUnits="userSpaceOnUse">
<stop stop-color="#FF9191"/>
<stop offset="1" stop-color="#4D49FF"/>
</linearGradient>
<linearGradient id="paint42_linear" x1="135.834" y1="247.563" x2="103.304" y2="247.563" gradientUnits="userSpaceOnUse">
<stop stop-color="#FF9191"/>
<stop offset="1" stop-color="#4D49FF"/>
</linearGradient>
<linearGradient id="paint43_linear" x1="140.854" y1="250.42" x2="118.622" y2="250.42" gradientUnits="userSpaceOnUse">
<stop stop-color="#FF9191"/>
<stop offset="1" stop-color="#4D49FF"/>
</linearGradient>
<linearGradient id="paint44_linear" x1="145.998" y1="252.202" x2="134.311" y2="252.202" gradientUnits="userSpaceOnUse">
<stop stop-color="#FF9191"/>
<stop offset="1" stop-color="#4D49FF"/>
</linearGradient>
<linearGradient id="paint45_linear" x1="151.189" y1="252.896" x2="150.189" y2="252.896" gradientUnits="userSpaceOnUse">
<stop stop-color="#FF9191"/>
<stop offset="1" stop-color="#4D49FF"/>
</linearGradient>
<linearGradient id="paint46_linear" x1="167.095" y1="252.477" x2="155.408" y2="252.477" gradientUnits="userSpaceOnUse">
<stop stop-color="#FF9191"/>
<stop offset="1" stop-color="#4D49FF"/>
</linearGradient>
<linearGradient id="paint47_linear" x1="182.811" y1="250.97" x2="160.579" y2="250.97" gradientUnits="userSpaceOnUse">
<stop stop-color="#FF9191"/>
<stop offset="1" stop-color="#4D49FF"/>
</linearGradient>
<linearGradient id="paint48_linear" x1="198.207" y1="248.363" x2="165.677" y2="248.363" gradientUnits="userSpaceOnUse">
<stop stop-color="#FF9191"/>
<stop offset="1" stop-color="#4D49FF"/>
</linearGradient>
<linearGradient id="paint49_linear" x1="213.073" y1="244.707" x2="170.596" y2="244.707" gradientUnits="userSpaceOnUse">
<stop stop-color="#FF9191"/>
<stop offset="1" stop-color="#4D49FF"/>
</linearGradient>
<linearGradient id="paint50_linear" x1="227.306" y1="240.029" x2="175.336" y2="240.029" gradientUnits="userSpaceOnUse">
<stop stop-color="#FF9191"/>
<stop offset="1" stop-color="#4D49FF"/>
</linearGradient>
<linearGradient id="paint51_linear" x1="240.695" y1="234.407" x2="179.794" y2="234.407" gradientUnits="userSpaceOnUse">
<stop stop-color="#FF9191"/>
<stop offset="1" stop-color="#4D49FF"/>
</linearGradient>
<linearGradient id="paint52_linear" x1="253.11" y1="227.856" x2="183.967" y2="227.856" gradientUnits="userSpaceOnUse">
<stop stop-color="#FF9191"/>
<stop offset="1" stop-color="#4D49FF"/>
</linearGradient>
<linearGradient id="paint53_linear" x1="264.422" y1="220.479" x2="187.805" y2="220.479" gradientUnits="userSpaceOnUse">
<stop stop-color="#FF9191"/>
<stop offset="1" stop-color="#4D49FF"/>
</linearGradient>
<linearGradient id="paint54_linear" x1="274.496" y1="212.367" x2="191.225" y2="212.367" gradientUnits="userSpaceOnUse">
<stop stop-color="#FF9191"/>
<stop offset="1" stop-color="#4D49FF"/>
</linearGradient>
<linearGradient id="paint55_linear" x1="283.232" y1="203.576" x2="194.206" y2="203.576" gradientUnits="userSpaceOnUse">
<stop stop-color="#FF9191"/>
<stop offset="1" stop-color="#4D49FF"/>
</linearGradient>
<linearGradient id="paint56_linear" x1="290.523" y1="194.232" x2="196.741" y2="194.232" gradientUnits="userSpaceOnUse">
<stop stop-color="#FF9191"/>
<stop offset="1" stop-color="#4D49FF"/>
</linearGradient>
<linearGradient id="paint57_linear" x1="296.318" y1="184.431" x2="198.808" y2="184.431" gradientUnits="userSpaceOnUse">
<stop stop-color="#FF9191"/>
<stop offset="1" stop-color="#4D49FF"/>
</linearGradient>
<linearGradient id="paint58_linear" x1="300.514" y1="174.262" x2="200.326" y2="174.262" gradientUnits="userSpaceOnUse">
<stop stop-color="#FF9191"/>
<stop offset="1" stop-color="#4D49FF"/>
</linearGradient>
<linearGradient id="paint59_linear" x1="303.083" y1="163.845" x2="201.322" y2="163.845" gradientUnits="userSpaceOnUse">
<stop stop-color="#FF9191"/>
<stop offset="1" stop-color="#4D49FF"/>
</linearGradient>
<clipPath id="clip0">
<rect width="304" height="304" fill="white" transform="translate(304) rotate(90)"/>
</clipPath>
</defs>
</svg>
